<?xml version="1.0" encoding="utf-8"?>
<!-- Generator: Adobe Illustrator 16.0.3, SVG Export Plug-In . SVG Version: 6.00 Build 0)  -->
<!DOCTYPE svg PUBLIC "-//W3C//DTD SVG 1.1//EN" "http://www.w3.org/Graphics/SVG/1.1/DTD/svg11.dtd">
<svg version="1.1" id="Capa_1" xmlns="http://www.w3.org/2000/svg" xmlns:xlink="http://www.w3.org/1999/xlink" x="0px" y="0px"
	 width="320.315px" height="320.315px" viewBox="0 0 320.315 320.315" enable-background="new 0 0 320.315 320.315"
	 xml:space="preserve">
<g>
	<circle fill="#FFFFFF" stroke="#000000" stroke-miterlimit="10" cx="160.157" cy="160.158" r="160.157"/>
	<circle fill="#F44D4C" cx="160.158" cy="160.158" r="145.984"/>
</g>
<g>
	<path fill-rule="evenodd" clip-rule="evenodd" d="M190.143,170.765c0,0.415,0,0.831,0,1.251c0,5.052,0.002,10.102,0,15.147
		c0,0.313,0,0.62-0.008,0.929c-0.014,0.409-0.217,0.653-0.639,0.658c-1.036,0.006-2.071,0.002-3.234,0.002
		c-0.039-0.575-0.103-1.061-0.103-1.537c-0.005-7.903-0.003-15.807-0.003-23.711c0-6.05,0-12.101,0-18.155
		c0-0.308,0.012-0.616,0.003-0.925c-0.009-0.485,0.257-0.715,0.706-0.726c0.849-0.017,1.693-0.018,2.543-0.001
		c0.607,0.013,0.742,0.41,0.738,0.943c-0.011,1.732-0.004,3.469-0.002,5.202c0,0.332,0,0.659,0.196,1.046
		c0.188-0.22,0.38-0.431,0.55-0.657c3.638-4.797,8.45-7.116,14.461-6.568c5.287,0.482,9.375,3.142,12.23,7.575
		c4,6.205,3.719,14.191-0.667,20.092c-6.431,8.666-19.43,9.012-25.933,0.166c-0.204-0.274-0.413-0.538-0.617-0.806
		C190.292,170.711,190.218,170.737,190.143,170.765z M203.193,147.683c-7.137,0.038-13.072,5.973-13.046,13.042
		c0.03,7.363,5.936,13.263,13.227,13.212c7.158-0.056,12.959-5.922,12.956-13.095C216.324,153.538,210.443,147.647,203.193,147.683z
		"/>
	<path fill-rule="evenodd" clip-rule="evenodd" d="M234.312,172.453c2.846,1.621,5.785,1.826,8.813,1.154
		c3.242-0.711,5.861-2.464,7.987-4.987c0.197-0.233,0.369-0.489,0.567-0.727c0.55-0.652,0.737-0.672,1.394-0.073
		c0.456,0.414,0.895,0.848,1.33,1.283c0.703,0.701,0.715,0.766,0.149,1.544c-1.241,1.693-2.707,3.161-4.45,4.34
		c-9.896,6.668-24.168,1.835-26.757-10.931c-1.856-9.138,4.277-18.306,13.395-20.151c6.91-1.398,14.031,1.491,18.004,7.3
		c0.583,0.85,0.588,0.875-0.193,1.628c-6.137,5.912-12.275,11.814-18.404,17.724C235.541,171.143,234.971,171.77,234.312,172.453z
		 M249.833,152.291c-2.78-3.662-7.608-5.584-12.656-4.435c-5.377,1.226-9.42,5.759-10.173,11.415
		c-0.621,4.61,1.597,9.167,4.517,11.007C237.599,164.306,243.689,158.322,249.833,152.291z"/>
	<path fill-rule="evenodd" clip-rule="evenodd" d="M108.694,169.9c-0.247,0.363-0.488,0.731-0.741,1.095
		c-2.417,3.46-5.592,5.802-9.779,6.65c-7.226,1.464-14.356-2.038-17.666-8.629c-1.295-2.581-1.812-5.312-1.819-8.159
		c-0.013-5.241-0.004-10.485-0.003-15.726c0-0.269-0.06-0.572,0.042-0.798c0.11-0.245,0.365-0.576,0.578-0.593
		c0.918-0.066,1.847-0.051,2.77-0.028c0.391,0.009,0.638,0.253,0.654,0.667c0.013,0.308,0.011,0.616,0.011,0.925
		c0.001,5.01,0.019,10.023-0.004,15.032c-0.017,3.398,0.898,6.474,3.038,9.132c5.998,7.427,17.544,5.988,21.68-2.7
		c1.009-2.122,1.48-4.354,1.471-6.708c-0.013-4.932-0.004-9.867-0.002-14.801c0-1.566,0.005-1.569,1.519-1.576
		c0.578-0.001,1.156,0.001,1.733,0.009c0.519,0.007,0.773,0.285,0.782,0.795c0.006,0.309,0.012,0.615,0.012,0.925
		c0,10.255,0,20.51,0,30.757c0,1.679-0.002,1.679-1.635,1.681c-0.462,0.002-0.925,0.011-1.388-0.004
		c-0.884-0.025-1.009-0.132-1.017-1.007c-0.019-1.928-0.006-3.854-0.008-5.779c0-0.368,0-0.733,0-1.099
		C108.847,169.938,108.771,169.917,108.694,169.9z"/>
	<path fill-rule="evenodd" clip-rule="evenodd" d="M178.762,169.676c-0.441,0.644-0.733,1.079-1.035,1.502
		c-2.399,3.37-5.539,5.67-9.646,6.465c-6.972,1.343-14.177-1.647-17.719-8.729c-1.29-2.583-1.759-5.324-1.763-8.172
		c-0.003-5.243-0.003-10.486,0.002-15.73c0.002-1.239,0.087-1.314,1.307-1.329c0.616-0.005,1.233-0.021,1.851,0.009
		c0.72,0.041,0.838,0.182,0.883,0.926c0.015,0.268,0.005,0.542,0.005,0.81c0,5.129-0.04,10.254,0.011,15.384
		c0.042,4.233,1.595,7.835,4.909,10.531c6.573,5.356,16.149,3.113,19.802-4.592c0.899-1.905,1.429-3.899,1.437-6.018
		c0.02-5.012,0.019-10.024,0.022-15.036c0-0.192-0.001-0.388,0-0.578c0.013-1.395,0.041-1.428,1.432-1.436
		c0.539-0.002,1.079-0.016,1.619,0.006c0.842,0.037,0.968,0.178,1.01,1.048c0.005,0.192,0,0.387,0,0.579c0,10.297,0,20.584,0,30.881
		c0,0.117,0.001,0.231,0,0.344c-0.022,1.244-0.076,1.3-1.324,1.309c-0.544,0.006-1.083,0.011-1.621-0.002
		c-0.996-0.023-1.099-0.123-1.11-1.156c-0.011-1.885-0.003-3.776-0.007-5.664C178.825,170.656,178.789,170.293,178.762,169.676z"/>
	<path fill-rule="evenodd" clip-rule="evenodd" d="M271.463,171.868c0.238-0.51,0.418-0.875,0.579-1.249
		c3.695-8.553,7.405-17.102,11.06-25.673c0.415-0.974,0.935-1.401,1.981-1.275c0.648,0.077,1.31-0.018,1.963,0.033
		c0.623,0.047,0.789,0.342,0.592,0.938c-0.079,0.255-0.208,0.496-0.313,0.745c-6.022,13.925-12.049,27.846-18.037,41.783
		c-0.412,0.959-0.91,1.433-1.971,1.298c-0.608-0.077-1.233,0.014-1.849-0.03c-0.563-0.049-0.73-0.326-0.57-0.869
		c0.075-0.257,0.206-0.5,0.313-0.745c1.226-2.782,2.428-5.578,3.691-8.348c0.336-0.729,0.33-1.331,0.013-2.064
		c-4.398-10.303-8.77-20.62-13.149-30.934c-0.719-1.69-0.652-1.792,1.208-1.795c0.463,0,0.929,0.04,1.384-0.007
		c0.83-0.088,1.241,0.284,1.555,1.035c1.456,3.525,2.966,7.025,4.453,10.535c2.179,5.138,4.36,10.28,6.542,15.419
		C271.059,171.013,271.23,171.355,271.463,171.868z"/>
	<path fill-rule="evenodd" clip-rule="evenodd" d="M131.541,177.939c-5.691-0.28-11.103-3.43-14.128-10.033
		c-4.521-9.867,1.097-22.263,13.008-23.986c6.523-0.938,11.996,1.225,16.205,6.378c0.218,0.27,0.419,0.553,0.614,0.841
		c0.224,0.325,0.223,0.641-0.071,0.937c-0.628,0.625-1.236,1.271-1.885,1.875c-0.476,0.441-0.661,0.391-1.139-0.13
		c-0.91-0.991-1.746-2.068-2.756-2.944c-7.485-6.488-19.254-2.457-21.225,7.567c-0.998,5.07,0.72,9.432,4.751,12.643
		c4.043,3.228,8.609,3.742,13.378,1.694c2.125-0.915,3.852-2.399,5.28-4.216c0.212-0.28,0.415-0.558,0.628-0.831
		c0.325-0.417,0.691-0.46,1.076-0.093c0.59,0.564,1.158,1.137,1.754,1.683c0.476,0.432,0.399,0.834,0.068,1.312
		c-1.305,1.907-2.916,3.483-4.865,4.719C139.53,177.06,136.151,178.018,131.541,177.939z"/>
	<path fill-rule="evenodd" clip-rule="evenodd" d="M44.624,135.768c-1.589,0-2.974,0-4.357,0c-2.196,0-4.393,0.008-6.588-0.005
		c-0.964-0.005-1.046-0.098-1.065-1.063c-0.016-0.732-0.023-1.467,0.003-2.196c0.027-0.793,0.155-0.9,0.972-0.938
		c0.192-0.008,0.386-0.002,0.578-0.002c8.361,0,16.719,0,25.083,0.001c1.546,0,1.547,0.002,1.551,1.515
		c0.001,0.655-0.002,1.311-0.007,1.963c-0.002,0.468-0.233,0.715-0.707,0.719c-0.268,0.002-0.542,0.006-0.81,0.006
		c-3.005,0-6.009,0-9.014,0c-0.423,0-0.844,0-1.426,0c-0.02,0.494-0.048,0.936-0.048,1.378c-0.003,11.213-0.002,22.427-0.002,33.638
		c0,1.961,0.007,3.928-0.003,5.896c-0.009,1.083-0.089,1.156-1.205,1.168c-0.616,0.012-1.233,0.013-1.849-0.002
		c-0.963-0.021-1.07-0.124-1.101-1.049c-0.011-0.348-0.004-0.692-0.004-1.043c0-12.824,0-25.657,0-38.486
		C44.624,136.816,44.624,136.362,44.624,135.768z"/>
	<path fill-rule="evenodd" clip-rule="evenodd" d="M67.51,148.469c0.41-0.481,0.673-0.793,0.944-1.099
		c1.972-2.232,4.394-3.593,7.41-3.754c1.177-0.063,1.255,0.03,1.277,1.192c0.009,0.5,0.005,1.002,0.001,1.502
		c-0.01,1.272-0.014,1.281-1.26,1.396c-1.939,0.179-3.654,0.896-5.127,2.162c-2.191,1.877-3.375,4.195-3.351,7.162
		c0.059,6.351,0.019,12.709,0.019,19.06c0,0.349,0.004,0.694-0.019,1.042c-0.029,0.449-0.267,0.709-0.736,0.709
		c-0.848,0.001-1.695,0.01-2.542-0.001c-0.525-0.007-0.752-0.312-0.749-0.82c0.001-0.229-0.004-0.458-0.004-0.694
		c0-10.359,0-20.719,0-31.077c0-0.233,0.005-0.463,0.002-0.694c-0.01-0.566,0.257-0.865,0.833-0.866
		c0.771-0.002,1.542-0.025,2.31,0.004c0.709,0.029,0.866,0.188,0.891,0.917c0.033,0.885,0.005,1.771,0.016,2.659
		C67.427,147.593,67.468,147.917,67.51,148.469z"/>
</g>
</svg>
